HIERARCHY
ROOT Hips
{
 OFFSET 0.000000 0.000000 0.000000
 CHANNELS 6 Xposition Yposition Zposition Yrotation Xrotation Zrotation
 JOINT Chest
 {
  OFFSET 0.000000 10.388337 0.005184
  CHANNELS 3 Yrotation Xrotation Zrotation
  JOINT Chest2
  {
   OFFSET 0.000000 10.458247 -0.010579
   CHANNELS 3 Yrotation Xrotation Zrotation
   JOINT Chest3
   {
    OFFSET 0.000000 10.415828 0.000000
    CHANNELS 3 Yrotation Xrotation Zrotation
    JOINT Chest4
    {
     OFFSET 0.000000 10.405206 0.000000
     CHANNELS 3 Yrotation Xrotation Zrotation
     JOINT Neck
     {
      OFFSET 0.000000 15.720090 0.000000
      CHANNELS 3 Yrotation Xrotation Zrotation
      JOINT Head
      {
       OFFSET 0.000000 9.732643 -0.022378
       CHANNELS 3 Yrotation Xrotation Zrotation
       End Site
       {
        OFFSET 0.000000 18.603619 -0.011814
       }
      }
     }
     JOINT RightCollar
     {
      OFFSET -3.167735 10.388953 0.000000
      CHANNELS 3 Yrotation Xrotation Zrotation
      JOINT RightShoulder
      {
       OFFSET -14.584825 0.000000 0.000000
       CHANNELS 3 Yrotation Xrotation Zrotation
       JOINT RightElbow
       {
        OFFSET 0.000000 -31.921689 0.000000
        CHANNELS 3 Yrotation Xrotation Zrotation
        JOINT RightWrist
        {
         OFFSET 0.000000 -25.835217 0.000000
         CHANNELS 3 Yrotation Xrotation Zrotation
         End Site
         {
          OFFSET 0.000000 -19.128920 0.000000
         }
        }
       }
      }
     }
     JOINT LeftCollar
     {
      OFFSET 3.167735 10.388953 0.000000
      CHANNELS 3 Yrotation Xrotation Zrotation
      JOINT LeftShoulder
      {
       OFFSET 14.584825 0.000000 0.000000
       CHANNELS 3 Yrotation Xrotation Zrotation
       JOINT LeftElbow
       {
        OFFSET 0.000000 -31.921689 0.000000
        CHANNELS 3 Yrotation Xrotation Zrotation
        JOINT LeftWrist
        {
         OFFSET 0.000000 -25.835217 0.000000
         CHANNELS 3 Yrotation Xrotation Zrotation
         End Site
         {
          OFFSET 0.000000 -19.128920 0.000000
         }
        }
       }
      }
     }
    }
   }
  }
 }
 JOINT RightHip
 {
  OFFSET -8.403278 -0.025659 -0.002592
  CHANNELS 3 Yrotation Xrotation Zrotation
  JOINT RightKnee
  {
   OFFSET 0.000000 -44.040977 0.002477
   CHANNELS 3 Yrotation Xrotation Zrotation
   JOINT RightAnkle
   {
    OFFSET 0.000000 -42.951162 0.004189
    CHANNELS 3 Yrotation Xrotation Zrotation
    JOINT RightToe
    {
     OFFSET 0.000000 -5.494238 12.197485
     CHANNELS 3 Yrotation Xrotation Zrotation
     End Site
     {
      OFFSET 0.000000 -1.538716 6.371628
     }
    }
   }
  }
 }
 JOINT LeftHip
 {
  OFFSET 8.403278 -0.025659 -0.002592
  CHANNELS 3 Yrotation Xrotation Zrotation
  JOINT LeftKnee
  {
   OFFSET 0.000000 -44.040977 0.002477
   CHANNELS 3 Yrotation Xrotation Zrotation
   JOINT LeftAnkle
   {
    OFFSET 0.000000 -42.951162 0.004189
    CHANNELS 3 Yrotation Xrotation Zrotation
    JOINT LeftToe
    {
     OFFSET 0.000000 -5.494238 12.197485
     CHANNELS 3 Yrotation Xrotation Zrotation
     End Site
     {
      OFFSET 0.000000 -1.538716 6.371628
     }
    }
   }
  }
 }
}
MOTION
Frames: 10
Frame Time: 0.008333
0.000000 92.319940 0.000000 0.000000 -5.767889 0.000000 0.000000 11.653876 0.000000 0.000000 -5.885988 0.000000 0.000000 -0.000000 0.000000 0.000000 -0.000000 0.000000 0.000000 12.528808 0.000000 0.000000 0.711711 0.000000 0.000000 -0.000000 0.000000 0.000000 0.000000 -90.000000 0.000000 -2.309063 0.000000 0.000000 2.309063 0.000000 0.000000 -0.000000 0.000000 0.000000 -0.000000 90.000000 0.000000 -2.309063 0.000000 0.000000 2.309063 0.000000 0.000000 8.520374 0.000000 0.000000 1.905768 0.000000 -0.000000 -4.658254 0.000000 0.000000 -0.000000 0.000000 0.000000 8.520374 0.000000 0.000000 1.905768 0.000000 -0.000000 -4.658254 0.000000 0.000000 -0.000000 0.000000
-20.896123 94.621153 637.939352 129.752923 -5.013697 4.693297 -0.568388 5.244013 -0.769915 -0.015834 0.165146 -0.023885 -0.028107 0.292652 -0.042359 -0.515523 5.036510 -0.751242 -4.291379 18.389638 2.510088 -8.680678 -1.335038 5.980328 3.695636 4.818203 -1.016849 6.416734 -2.452841 -8.427550 -0.879959 -5.368484 3.063184 -6.257629 4.049844 3.461759 -0.184385 4.905364 0.868113 -4.081205 -3.568668 6.337887 1.525193 0.037946 -7.449674 1.432564 -0.949399 -1.470703 0.528996 9.086109 -3.540518 -1.131930 -2.311239 0.701475 -20.253504 -0.657771 -4.324085 0.003642 -0.123972 0.292964 7.408468 6.401529 4.066627 15.699959 9.087190 1.961505 -9.718162 -6.306077 -12.304156 -0.018729 -0.367963 -0.179132
-20.995846 94.635270 637.935721 129.787671 -5.027829 4.703876 -0.570609 5.308179 -0.779038 -0.016157 0.169353 -0.024920 -0.028672 0.299999 -0.044179 -0.520180 5.096321 -0.773256 -4.278787 18.357563 2.529520 -8.666135 -1.393714 6.014604 3.732759 4.735353 -1.016691 6.504374 -2.571671 -8.527223 -0.928226 -5.343265 3.122907 -6.262326 4.080261 3.503225 -0.273244 4.851950 0.837174 -4.256209 -3.799029 6.423088 1.434436 0.085601 -7.428754 1.418637 -0.926855 -1.505796 0.517189 8.922514 -3.581907 -1.086582 -2.055134 0.683967 -20.357856 -0.695060 -4.317903 0.002997 -0.116494 0.285255 7.390371 6.320287 4.039567 15.766909 9.455824 2.068279 -9.703490 -6.495818 -12.227031 -0.015318 -0.367247 -0.216900
-21.112721 94.651352 637.930936 129.803355 -5.055005 4.714281 -0.562607 5.386694 -0.789112 -0.016392 0.173767 -0.025859 -0.029081 0.307703 -0.045826 -0.521832 5.158687 -0.791435 -4.267790 18.324228 2.548086 -8.654350 -1.454666 6.047905 3.754796 4.654651 -1.025883 6.613967 -2.708946 -8.644432 -0.964577 -5.317439 3.207510 -6.263639 4.109266 3.542872 -0.368827 4.787461 0.791041 -4.419714 -4.023154 6.519058 1.351764 0.129717 -7.405684 1.404007 -0.908957 -1.544618 0.518787 8.753898 -3.632927 -1.042852 -1.779215 0.672210 -20.454165 -0.729699 -4.301180 0.003102 -0.109475 0.274881 7.374065 6.288035 4.009102 15.866036 9.802389 2.176315 -9.687797 -6.687890 -12.149698 -0.010262 -0.371934 -0.248947
-21.245263 94.668277 637.926656 129.806139 -5.084610 4.721842 -0.554504 5.467265 -0.800613 -0.016489 0.178459 -0.026682 -0.029245 0.315891 -0.047265 -0.519003 5.224698 -0.805119 -4.256374 18.288874 2.565675 -8.641649 -1.519489 6.079456 3.765768 4.575425 -1.044249 6.745951 -2.863544 -8.778037 -0.984035 -5.288121 3.314741 -6.273541 4.123594 3.571287 -0.464009 4.712441 0.737006 -4.581797 -4.233180 6.622435 1.295388 0.163322 -7.388122 1.391840 -0.901908 -1.580469 0.530742 8.569850 -3.691225 -1.005431 -1.484096 0.671213 -20.544935 -0.764351 -4.279805 0.003499 -0.102412 0.263523 7.357071 6.280413 3.978054 15.982807 10.132272 2.280167 -9.658610 -6.873280 -12.072723 -0.003038 -0.379493 -0.272990
-21.390546 94.685016 637.923607 129.796370 -5.114845 4.723144 -0.548011 5.549226 -0.811283 -0.016563 0.183308 -0.027373 -0.029366 0.324347 -0.048472 -0.515283 5.292336 -0.814453 -4.241932 18.251011 2.581901 -8.623166 -1.589357 6.107761 3.775232 4.498284 -1.070495 6.899032 -3.035502 -8.928333 -0.980764 -5.250400 3.443558 -6.302103 4.114232 3.581897 -0.553762 4.635885 0.684851 -4.745070 -4.435691 6.723938 1.277341 0.189010 -7.380924 1.385785 -0.913943 -1.609628 0.563305 8.369751 -3.751275 -0.975529 -1.168435 0.682015 -20.634174 -0.802983 -4.257376 0.003927 -0.094412 0.253280 7.342264 6.287783 3.951528 16.109233 10.454037 2.377183 -9.616792 -7.069490 -11.997066 0.004329 -0.376370 -0.287449
-21.546561 94.700573 637.923079 129.772841 -5.140584 4.713369 -0.542036 5.630545 -0.817052 -0.016613 0.188187 -0.027916 -0.029447 0.332851 -0.049414 -0.510940 5.359770 -0.819358 -4.224922 18.209661 2.597096 -8.599917 -1.666012 6.133647 3.783777 4.419651 -1.102420 7.076951 -3.222424 -9.094894 -0.949746 -5.201947 3.591391 -6.356549 4.075255 3.571182 -0.641966 4.563457 0.636690 -4.899898 -4.639508 6.821041 1.297206 0.210980 -7.385096 1.391306 -0.949990 -1.628767 0.624405 8.148464 -3.807589 -0.948474 -0.828294 0.701127 -20.704985 -0.847302 -4.231953 0.004583 -0.085495 0.245397 7.328898 6.294165 3.931754 16.246442 10.781987 2.472606 -9.562171 -7.297278 -11.921866 0.009634 -0.353109 -0.295099
-21.711670 94.714278 637.925253 129.729204 -5.162283 4.691283 -0.532930 5.711390 -0.816684 -0.016513 0.193219 -0.028399 -0.029262 0.341618 -0.050249 -0.502340 5.428653 -0.822087 -4.206403 18.163676 2.612804 -8.574423 -1.751341 6.160376 3.788595 4.329983 -1.133258 7.288963 -3.415943 -9.279025 -0.892619 -5.138595 3.754343 -6.438450 3.997590 3.536342 -0.733730 4.495123 0.589917 -5.032764 -4.846523 6.918774 1.343003 0.233862 -7.403214 1.416419 -1.013195 -1.634460 0.712909 7.903719 -3.855522 -0.912972 -0.460063 0.725845 -20.775862 -0.897264 -4.204394 0.004930 -0.077617 0.239792 7.317371 6.292645 3.915864 16.390646 11.127210 2.570897 -9.477472 -7.564982 -11.836859 0.012672 -0.311148 -0.306360
-21.885121 94.725783 637.929109 129.667086 -5.184264 4.660999 -0.522503 5.793587 -0.812007 -0.016304 0.198659 -0.028950 -0.028882 0.351090 -0.051203 -0.490588 5.502034 -0.825755 -4.185300 18.111928 2.629804 -8.545051 -1.847454 6.189125 3.793874 4.218362 -1.155334 7.542582 -3.605046 -9.484561 -0.820671 -5.056523 3.930783 -6.541832 3.878326 3.473799 -0.828740 4.427253 0.541910 -5.138452 -5.053464 7.023487 1.403640 0.265447 -7.444603 1.466956 -1.117391 -1.620439 0.808252 7.634616 -3.897146 -0.861627 -0.057622 0.755417 -20.870845 -0.956720 -4.176058 0.004591 -0.071137 0.235847 7.298640 6.283604 3.899192 16.534719 11.494510 2.673206 -9.372338 -7.866621 -11.728541 0.013637 -0.264394 -0.330605
-22.066541 94.734861 637.933749 129.592268 -5.210223 4.626003 -0.512396 5.879303 -0.804608 -0.016069 0.204664 -0.029601 -0.028459 0.361537 -0.052330 -0.478065 5.581600 -0.830979 -4.160680 18.054530 2.648287 -8.510141 -1.954208 6.219932 3.800891 4.085057 -1.165881 7.846714 -3.788012 -9.714463 -0.753160 -4.953102 4.121486 -6.661325 3.715775 3.380579 -0.928781 4.359857 0.495453 -5.222717 -5.261045 7.136972 1.477566 0.316450 -7.518058 1.548706 -1.280682 -1.578992 0.885987 7.341460 -3.940125 -0.789287 0.387665 0.786070 -20.952489 -1.030108 -4.140543 0.004884 -0.064814 0.233530 7.260261 6.267624 3.878955 16.670700 11.886523 2.780229 -9.261142 -8.184419 -11.599819 0.013818 -0.232034 -0.362794
